<svg id="bc04e387-c69f-40f8-acb0-ff5fc071708b" data-name="Capa 1" xmlns="http://www.w3.org/2000/svg" xmlns:xlink="http://www.w3.org/1999/xlink" viewBox="0 0 600 600"><defs><style>.a5fb532d-0803-4d6a-bc80-f5aec8025b66{fill:none;}.a19d8b67-b103-4696-8731-bafcf99bc8fc{fill:url(#afe7e142-ce25-4cae-ba92-9b696413a83a);}.f569bcc5-437c-4c9f-b6cb-f5ee834981b5{fill:#0065aa;}.a88ceb29-ee12-4998-b15e-ac8d5520ee78{fill:#004486;}.a6828cbe-132f-45cc-91f8-3dbaf1fd966c{fill:#043263;}.f52ea3e9-6187-4116-9dd2-9ec0b47af975{fill:url(#b6573f15-0d6a-413e-9f82-5d7d8cef6251);}.e0d1d662-68ed-473b-89cb-caf3c31d2de2{fill:#ed003e;}.b1a421c5-100c-4e37-8098-c0c335865e91{fill:#fff;}</style><linearGradient id="afe7e142-ce25-4cae-ba92-9b696413a83a" x1="293.65" y1="8018.76" x2="465.83" y2="8342.6" gradientTransform="translate(0 -7844)" gradientUnits="userSpaceOnUse"><stop offset="0" stop-color="#192647" stop-opacity="0.5"/><stop offset="1" stop-color="#192647" stop-opacity="0"/></linearGradient><linearGradient id="b6573f15-0d6a-413e-9f82-5d7d8cef6251" x1="458.23" y1="8165.31" x2="215.8" y2="8165.31" gradientTransform="translate(0 -7844)" gradientUnits="userSpaceOnUse"><stop offset="0" stop-color="#072146" stop-opacity="0.8"/><stop offset="1" stop-color="#072146" stop-opacity="0.1"/></linearGradient></defs><g id="ae390cef-49c7-4fc2-ac5c-ab07ca9d442e" data-name="Cuadrados Blancos"><rect class="a5fb532d-0803-4d6a-bc80-f5aec8025b66" width="600" height="600"/><rect class="a5fb532d-0803-4d6a-bc80-f5aec8025b66" width="600" height="600"/></g><g id="fa545a27-eea6-48b1-982b-d9ffa2fffbe6" data-name="Capa 21"><path class="a19d8b67-b103-4696-8731-bafcf99bc8fc" d="M514.21,216.43a14.11,14.11,0,0,0-2.31-.64q-5.58-1-11-2.36a236.81,236.81,0,0,1-26.46-8.09c-1.71-.63-3.41-1.29-5.09-2-40.41-15.92-73.79-40.79-95.65-60a13.66,13.66,0,0,0-2-1.46,13.42,13.42,0,0,0-6.79-1.87h-.05a13.2,13.2,0,0,0-6.86,2,13.66,13.66,0,0,0-2,1.46,374.71,374.71,0,0,1-40.87,31.19q-4,2.65-8.26,5.26-6.33,3.92-13.07,7.65a283.12,283.12,0,0,1-33.45,15.85q-5.06,2-10.25,3.79c-3.46,1.19-7,2.32-10.52,3.36a221.08,221.08,0,0,1-21.81,5.25,13.71,13.71,0,0,0-7.16,3.77c-.27.27-.53.55-.78.85a13.38,13.38,0,0,0-3.13,8.6h0V335c0,1.72,0,3.44.06,5.15v1c0,1.45.08,2.9.15,4.34v.67c.08,1.58.17,3.16.28,4.74v.25a224.38,224.38,0,0,0,4.62,32.42.45.45,0,0,0,.07.29c.26,1.2.53,2.4.82,3.6a1.63,1.63,0,0,0,.07.3Q215,397,218,406c.07.22.14.44.22.67l1,3c.12.34.23.67.36,1,.33.94.67,1.87,1,2.8l.42,1.11c.35.92.7,1.84,1.06,2.75.13.35.28.69.41,1q1.83,4.55,3.86,9l.5,1.11c.35.76.71,1.51,1.07,2.26.25.54.5,1.07.76,1.61.34.7.69,1.4,1,2.1s.58,1.17.88,1.75.68,1.33,1,2,.65,1.23,1,1.85.67,1.26,1,1.88.75,1.34,1.12,2,.63,1.14,1,1.7c.54,1,1.1,1.91,1.66,2.86l1,1.64c.55.92,1.11,1.83,1.68,2.74l.9,1.41q.71,1.13,1.44,2.25l1,1.48c.48.72,1,1.44,1.45,2.15l1,1.47,1.53,2.18,1,1.38c.57.79,1.15,1.57,1.73,2.36l.85,1.14c.87,1.16,1.75,2.32,2.65,3.46Q260,480.39,267.23,488a216.86,216.86,0,0,0,31.32,27.12c1.12.8,2.25,1.58,3.39,2.36,1.86,1.27,3.75,2.5,5.65,3.71l2.61,1.63q6.33,3.9,12.91,7.35c1.22.64,2.44,1.26,3.66,1.87,2.46,1.22,4.93,2.4,7.43,3.52s5,2.2,7.54,3.23q9.52,3.84,19.38,6.72a13.17,13.17,0,0,0,7.31,0,208.4,208.4,0,0,0,41.63-17.28c2.4-1.31,4.78-2.68,7.14-4.09A216,216,0,0,0,462.37,488q7.19-7.56,13.68-15.84c.9-1.14,1.78-2.3,2.65-3.46l.85-1.14c.58-.79,1.16-1.57,1.73-2.36l1-1.38c.52-.72,1-1.45,1.54-2.18l1-1.47c.49-.71,1-1.43,1.45-2.15l1-1.48c.49-.75,1-1.5,1.44-2.25l.9-1.41c.57-.91,1.13-1.84,1.69-2.76.32-.53.64-1.06.95-1.59.57-1,1.14-1.92,1.69-2.89.33-.56.64-1.13,1-1.7l1.12-2c.34-.62.68-1.25,1-1.88s.66-1.23,1-1.85.69-1.33,1-2l.88-1.75c.35-.7.69-1.4,1-2.1l.77-1.61c.36-.75.72-1.5,1.07-2.26l.51-1.13q2-4.46,3.84-9l.42-1c.36-.91.71-1.83,1.06-2.75l.42-1.11c.35-.93.69-1.86,1-2.8l.36-1c.35-1,.69-2,1-3l.23-.68q3-9,5.18-18.21a1.87,1.87,0,0,1,.08-.32c.28-1.19.56-2.38.82-3.58a.46.46,0,0,1,.07-.3,224.38,224.38,0,0,0,4.62-32.42v-.25c.11-1.58.2-3.16.28-4.74v-.67c.06-1.44.11-2.89.15-4.34v-1c0-1.71.06-3.43.06-5.15V229h0A13.45,13.45,0,0,0,514.21,216.43Z"/><path class="f569bcc5-437c-4c9f-b6cb-f5ee834981b5" d="M153,168a13.49,13.49,0,0,0-11.07,13.22v106c0,50.48,16.23,97.89,46.93,137.1a213.12,213.12,0,0,0,107.57,73.34,13,13,0,0,0,7.31,0,213.33,213.33,0,0,0,107.57-73.34c30.69-39.21,46.92-86.62,46.92-137.1v-106A13.49,13.49,0,0,0,447.11,168C387.65,156.93,338,121.22,308.87,95.67a13.4,13.4,0,0,0-17.68,0C262,121.22,212.41,156.93,153,168Z"/><path class="a88ceb29-ee12-4998-b15e-ac8d5520ee78" d="M300,92.34a13.38,13.38,0,0,0-8.84,3.33C262,121.22,212.41,156.93,153,168a13.49,13.49,0,0,0-11.07,13.22v106q0,10.72,1,21.24H300Z"/><path class="a6828cbe-132f-45cc-91f8-3dbaf1fd966c" d="M142.87,308.51a219.21,219.21,0,0,0,45.94,115.86,213.12,213.12,0,0,0,107.57,73.34,12.84,12.84,0,0,0,3.65.53V308.51Z"/><path class="a6828cbe-132f-45cc-91f8-3dbaf1fd966c" d="M458.23,287.24v-106A13.49,13.49,0,0,0,447.16,168C387.7,156.9,338.05,121.19,308.92,95.64a13.33,13.33,0,0,0-8.87-3.33V308.48H457.24Q458.22,298,458.23,287.24Z"/><path class="a88ceb29-ee12-4998-b15e-ac8d5520ee78" d="M300,308.51V498.24a13,13,0,0,0,3.66-.53,213.33,213.33,0,0,0,107.57-73.34,219.2,219.2,0,0,0,45.93-115.86Z"/><path class="f52ea3e9-6187-4116-9dd2-9ec0b47af975" d="M447.16,168c-24.32-4.54-47-13.19-67.3-23.59L215.8,453a211.23,211.23,0,0,0,80.63,44.73,13,13,0,0,0,7.31,0,213.33,213.33,0,0,0,107.57-73.34c30.69-39.21,46.92-86.62,46.92-137.1v-106A13.49,13.49,0,0,0,447.16,168Z"/><path class="e0d1d662-68ed-473b-89cb-caf3c31d2de2" d="M296.59,215.37l-80.25,140a4,4,0,0,0,3.49,6h160.5a4,4,0,0,0,3.49-6L303.57,215.37a4,4,0,0,0-5.42-1.56A3.9,3.9,0,0,0,296.59,215.37Z"/><path class="b1a421c5-100c-4e37-8098-c0c335865e91" d="M299.5,315.84a5.74,5.74,0,0,1-5.72-5.76h0V271a5.74,5.74,0,0,1,11.46-.48v39.51a5.75,5.75,0,0,1-5.74,5.77Z"/><path class="b1a421c5-100c-4e37-8098-c0c335865e91" d="M299.51,337.38a5.75,5.75,0,0,1-4.06-1.69,5.88,5.88,0,0,1-.7-.88,5.31,5.31,0,0,1-.53-1,5.18,5.18,0,0,1-.33-1.08,6.09,6.09,0,0,1-.1-1.13,5.72,5.72,0,0,1,5.7-5.76h0a5.71,5.71,0,0,1,4.05,1.69,5.77,5.77,0,0,1-4.05,9.85Z"/></g></svg>